<svg xmlns="http://www.w3.org/2000/svg" xmlns:xlink="http://www.w3.org/1999/xlink" width="200" height="200" class="icon" data-spm-anchor-id="a313x.7781069.0.i15" p-id="12411" t="1650067512188" version="1.1" viewBox="0 0 1024 1024"><defs><style type="text/css"/></defs><path fill="#155BCD" d="M512 337.92a42.666667 42.666667 0 0 1-30.72-13.226667 42.666667 42.666667 0 0 1 0-60.16l128-124.586666a42.666667 42.666667 0 1 1 59.733333 61.44l-128 124.16a42.666667 42.666667 0 0 1-29.013333 12.373333z" data-spm-anchor-id="a313x.7781069.0.i11" p-id="12412"/><path fill="#155BCD" d="M512 337.92a42.666667 42.666667 0 0 1-29.866667-12.373333l-128-124.16a42.666667 42.666667 0 0 1 59.733334-61.44l128 124.586666a42.666667 42.666667 0 0 1 0 60.16 42.666667 42.666667 0 0 1-29.866667 13.226667zM640 896a42.666667 42.666667 0 0 1-29.866667-11.946667l-128-124.586666a42.666667 42.666667 0 1 1 59.733334-61.013334l128 124.16A42.666667 42.666667 0 0 1 640 896z" data-spm-anchor-id="a313x.7781069.0.i12" p-id="12413"/><path fill="#155BCD" d="M384 896a42.666667 42.666667 0 0 1-29.866667-73.386667l128-124.16a42.666667 42.666667 0 1 1 59.733334 61.013334l-128 124.586666A42.666667 42.666667 0 0 1 384 896z" data-spm-anchor-id="a313x.7781069.0.i14" p-id="12414"/><path fill="#84A9FF" d="M512 426.666667a42.666667 42.666667 0 0 1-42.666667-42.666667V128a42.666667 42.666667 0 0 1 85.333334 0v256a42.666667 42.666667 0 0 1-42.666667 42.666667zM512 938.666667a42.666667 42.666667 0 0 1-42.666667-42.666667v-256a42.666667 42.666667 0 0 1 85.333334 0v256a42.666667 42.666667 0 0 1-42.666667 42.666667z" class="selected" data-spm-anchor-id="a313x.7781069.0.i19" p-id="12415"/><path fill="#155BCD" d="M295.253333 554.666667a42.666667 42.666667 0 0 1-30.72-12.8l-124.586666-128a42.666667 42.666667 0 1 1 61.44-59.733334l124.16 128a42.666667 42.666667 0 0 1 0 60.586667 42.666667 42.666667 0 0 1-30.293334 11.946667z" data-spm-anchor-id="a313x.7781069.0.i13" p-id="12416"/><path fill="#155BCD" d="M170.666667 682.666667a42.666667 42.666667 0 0 1-30.72-72.533334l124.586666-128a42.666667 42.666667 0 1 1 61.013334 59.733334l-124.16 128A42.666667 42.666667 0 0 1 170.666667 682.666667zM728.746667 554.666667a42.666667 42.666667 0 0 1-29.44-11.946667 42.666667 42.666667 0 0 1 0-60.586667l124.16-128a42.666667 42.666667 0 0 1 61.44 59.733334l-124.586667 128a42.666667 42.666667 0 0 1-31.573333 12.8z" data-spm-anchor-id="a313x.7781069.0.i10" p-id="12417"/><path fill="#155BCD" d="M853.333333 682.666667a42.666667 42.666667 0 0 1-30.72-12.8l-124.16-128a42.666667 42.666667 0 1 1 61.013334-59.733334l124.586666 128A42.666667 42.666667 0 0 1 853.333333 682.666667z" data-spm-anchor-id="a313x.7781069.0.i9" p-id="12418"/><path fill="#84A9FF" d="M384 554.666667H128a42.666667 42.666667 0 0 1 0-85.333334h256a42.666667 42.666667 0 0 1 0 85.333334zM896 554.666667h-256a42.666667 42.666667 0 0 1 0-85.333334h256a42.666667 42.666667 0 0 1 0 85.333334z" class="selected" data-spm-anchor-id="a313x.7781069.0.i18" p-id="12419"/><path fill="#155BCD" d="M512 682.666667a42.666667 42.666667 0 0 1-30.293333-12.373334l-128-128a42.666667 42.666667 0 0 1 0-60.586666l128-128a42.666667 42.666667 0 0 1 60.586666 0l128 128a42.666667 42.666667 0 0 1 0 60.586666l-128 128A42.666667 42.666667 0 0 1 512 682.666667z m-67.84-170.666667L512 579.84 579.84 512 512 444.16z" data-spm-anchor-id="a313x.7781069.0.i8" p-id="12420"/></svg>